<?xml version="1.0" encoding="UTF-8"?>
<svg version="1.1" xmlns="http://www.w3.org/2000/svg" width="309" height="256">
<path d="M0 0 C11.74232353 -0.54168457 24.83757314 2.22181097 33.75 10.19140625 C41.95352033 17.73216461 45.73221015 25.46301733 46.26831055 36.57348633 C46.50159207 48.74407994 43.3812296 59.42436314 37.75 70.19140625 C38.46800781 70.03027344 39.18601563 69.86914062 39.92578125 69.703125 C60.8399788 65.91369225 86.0014948 72.10710939 103.75 83.19140625 C112.10183434 89.31110072 117.89732781 96.18224774 120.75 106.19140625 C122.00084712 117.65265658 119.31210517 125.90203778 112.75 135.19140625 C99.24279567 151.62557138 79.49079995 158.91579171 58.75 161.19140625 C53.64126817 161.40694639 48.54950628 161.38363547 43.4375 161.31640625 C42.09961621 161.30633843 40.76172493 161.29721941 39.42382812 161.2890625 C36.19902038 161.26577869 32.97461346 161.23308035 29.75 161.19140625 C30.14541992 161.69929687 30.54083984 162.2071875 30.94824219 162.73046875 C41.19729116 176.10369331 45.45083142 188.55107505 43.35546875 205.35546875 C40.06233453 222.47976668 30.69294271 236.60339508 16.9375 247.12890625 C3.8233713 255.72454509 -12.53495243 258.3121237 -27.83203125 255.54296875 C-48.69052961 249.64104781 -64.95453715 233.44945178 -75.375 214.87890625 C-76.01179994 213.65581119 -76.64229122 212.42921308 -77.25 211.19140625 C-77.71148437 211.9184375 -78.17296875 212.64546875 -78.6484375 213.39453125 C-88.72030793 228.92033942 -101.86486038 246.13525685 -120.453125 251.6796875 C-135.79272871 254.48623511 -149.71815426 251.05463532 -162.59375 242.25 C-172.44043097 234.61882225 -178.95391378 226.319418 -184.25 215.19140625 C-184.70503906 214.25683594 -185.16007813 213.32226562 -185.62890625 212.359375 C-193.03390675 193.4985549 -188.95679262 169.84267513 -181.41796875 151.671875 C-168.83766398 122.8862716 -147.20524253 101.05942494 -118.25 89.19140625 C-115.26016008 88.06452496 -112.31906418 87.08422492 -109.25 86.19140625 C-110.75696959 81.94449196 -112.89060972 78.16945582 -115.12890625 74.27734375 C-119.04878471 66.98391135 -118.2736824 56.3655595 -116.34375 48.49609375 C-110.41392491 32.41714496 -99.24996213 19.25549652 -83.6875 11.94140625 C-76.16551332 8.59830106 -68.99723934 7.84947785 -60.875 7.87890625 C-59.99328125 7.86279297 -59.1115625 7.84667969 -58.203125 7.83007812 C-50.23451805 7.82423604 -42.05851992 8.97035049 -35.8125 14.31640625 C-33.46567879 16.28597228 -32.22265589 17.20052095 -29.25 18.19140625 C-29.01410156 17.62421875 -28.77820313 17.05703125 -28.53515625 16.47265625 C-24.34335476 9.03189008 -16.24221462 3.74145138 -8.25 1.19140625 C-5.46638104 0.46524478 -2.85554458 0.24291959 0 0 Z " fill="#FA9CAF" transform="translate(188.25,-0.19140625)"/>
<path d="M0 0 C1.17054932 -0.01450195 1.17054932 -0.01450195 2.36474609 -0.02929688 C7.0207991 0.03863095 9.90311677 0.58538043 13.75 3.4375 C14.843125 4.118125 15.93625 4.79875 17.0625 5.5 C17.949375 6.139375 18.83625 6.77875 19.75 7.4375 C19.75 8.0975 19.75 8.7575 19.75 9.4375 C20.3378125 9.54707031 20.925625 9.65664062 21.53125 9.76953125 C27.43394945 11.54657633 31.91684653 17.22449761 34.75 22.4375 C34.75 23.7575 34.75 25.0775 34.75 26.4375 C35.41 26.4375 36.07 26.4375 36.75 26.4375 C36.75 31.7175 36.75 36.9975 36.75 42.4375 C36.09 42.4375 35.43 42.4375 34.75 42.4375 C34.523125 43.076875 34.29625 43.71625 34.0625 44.375 C32.56940881 47.85887945 30.75896682 51.06879212 28.87109375 54.3515625 C27.62530125 56.52731183 27.62530125 56.52731183 26.75 59.4375 C26.09 59.4375 25.43 59.4375 24.75 59.4375 C24.5025 60.159375 24.255 60.88125 24 61.625 C21.97661764 66.17761031 19.74868168 69.23084677 15.1328125 71.23828125 C13.72227151 71.76613097 12.30223377 72.26911022 10.875 72.75 C9.74759399 73.13454346 9.74759399 73.13454346 8.59741211 73.52685547 C-0.89430395 76.54343929 -10.6631354 77.20478028 -19.875 72.88671875 C-28.25692779 67.77208847 -33.82023362 61.10248221 -38.25 52.4375 C-38.62898438 51.85097656 -39.00796875 51.26445313 -39.3984375 50.66015625 C-40.70999639 47.23686723 -40.45789846 43.7967716 -40.375 40.1875 C-40.36597656 39.44242188 -40.35695313 38.69734375 -40.34765625 37.9296875 C-40.32418358 36.09881941 -40.28831525 34.26811762 -40.25 32.4375 C-39.59 32.4375 -38.93 32.4375 -38.25 32.4375 C-38.29125 31.70144531 -38.3325 30.96539062 -38.375 30.20703125 C-38.03380443 22.64741683 -32.17134196 16.9507787 -26.921875 12.06640625 C-25.15705019 10.52539175 -25.15705019 10.52539175 -24.25 8.4375 C-23.59 8.4375 -22.93 8.4375 -22.25 8.4375 C-22.25 7.7775 -22.25 7.1175 -22.25 6.4375 C-20.93 6.4375 -19.61 6.4375 -18.25 6.4375 C-18.25 5.7775 -18.25 5.1175 -18.25 4.4375 C-12.11483207 0.80184493 -7.00115416 0.0282134 0 0 Z " fill="#FDBC01" transform="translate(144.25,74.5625)"/>
<path d="M0 0 C0.33 0.66 0.66 1.32 1 2 C-3.75 7.875 -3.75 7.875 -6 9 C-6.65555119 11.52733235 -6.65555119 11.52733235 -7 14 C-7.66 14 -8.32 14 -9 14 C-9.74515899 17.38636309 -10.16770563 20.61943103 -10.31640625 24.08203125 C-10.35830078 25.01337891 -10.40019531 25.94472656 -10.44335938 26.90429688 C-10.50233398 28.34385742 -10.50233398 28.34385742 -10.5625 29.8125 C-10.60568359 30.79154297 -10.64886719 31.77058594 -10.69335938 32.77929688 C-10.7990226 35.18607027 -10.90112327 37.59293983 -11 40 C-10.34 40 -9.68 40 -9 40 C-9 41.65 -9 43.3 -9 45 C-13.33056298 39.48837439 -14.2866966 35.79002109 -14.125 28.75 C-14.11597656 28.00492188 -14.10695313 27.25984375 -14.09765625 26.4921875 C-14.07418358 24.66131941 -14.03831525 22.83061762 -14 21 C-13.34 21 -12.68 21 -12 21 C-12.04253906 20.26523438 -12.08507812 19.53046875 -12.12890625 18.7734375 C-11.79430185 11.57437322 -6.36380973 5.9241793 -1.35546875 1.21484375 C-0.90816406 0.81394531 -0.46085937 0.41304688 0 0 Z " fill="#FBAF45" transform="translate(118,86)"/>
<path d="M0 0 C4.09889056 7.40484403 3.0245151 18.49775714 0.984375 26.53125 C-0.80010785 32.63013291 -3.04843961 38.35654728 -6 44 C-4.35 44 -2.7 44 -1 44 C-1.66 44.66 -2.32 45.32 -3 46 C-5.625 45.625 -5.625 45.625 -8 45 C-8 43.02 -8 41.04 -8 39 C-7.34 39 -6.68 39 -6 39 C-6 38.34 -6 37.68 -6 37 C-5.34 37 -4.68 37 -4 37 C-3.814375 35.700625 -3.814375 35.700625 -3.625 34.375 C-3 31 -3 31 -1.98681641 28.16748047 C-0.98472705 24.95097693 -0.6897594 22.30222051 -0.5859375 18.9453125 C-0.52792969 17.28242187 -0.52792969 17.28242187 -0.46875 15.5859375 C-0.4378125 14.44382812 -0.406875 13.30171875 -0.375 12.125 C-0.33632812 10.9596875 -0.29765625 9.794375 -0.2578125 8.59375 C-0.16389681 5.72932136 -0.07822017 2.86489308 0 0 Z " fill="#ECB4BF" transform="translate(232,26)"/>
<path d="M0 0 C1.65 0 3.3 0 5 0 C4.67 1.32 4.34 2.64 4 4 C3.67 3.34 3.34 2.68 3 2 C2.52691406 2.73863281 2.05382812 3.47726563 1.56640625 4.23828125 C-3.19490849 11.54267637 -8.15691257 18.50483935 -14 25 C-14.33 25 -14.66 25 -15 25 C-15 23.35 -15 21.7 -15 20 C-14.01 20 -13.02 20 -12 20 C-12 19.34 -12 18.68 -12 18 C-11.34 18 -10.68 18 -10 18 C-10 17.34 -10 16.68 -10 16 C-9.34 16 -8.68 16 -8 16 C-8 15.01 -8 14.02 -8 13 C-7.34 13 -6.68 13 -6 13 C-6 12.01 -6 11.02 -6 10 C-5.34 10 -4.68 10 -4 10 C-3.67 8.68 -3.34 7.36 -3 6 C-2.34 6 -1.68 6 -1 6 C-0.67 4.02 -0.34 2.04 0 0 Z " fill="#E6B0BB" transform="translate(108,209)"/>
<path d="M0 0 C0.495 0.99 0.495 0.99 1 2 C-5.93 1.505 -5.93 1.505 -13 1 C-13 1.66 -13 2.32 -13 3 C-14.7015625 3.2165625 -14.7015625 3.2165625 -16.4375 3.4375 C-19.80777201 3.61171478 -19.80777201 3.61171478 -21 5 C-22.66617115 5.04063832 -24.33388095 5.042721 -26 5 C-26 5.66 -26 6.32 -26 7 C-26.99 7 -27.98 7 -29 7 C-29 7.66 -29 8.32 -29 9 C-29.99 9 -30.98 9 -32 9 C-32 9.66 -32 10.32 -32 11 C-32.66 10.67 -33.32 10.34 -34 10 C-33.67 9.34 -33.34 8.68 -33 8 C-32.34 8 -31.68 8 -31 8 C-31 7.34 -31 6.68 -31 6 C-29.68 6 -28.36 6 -27 6 C-27 5.34 -27 4.68 -27 4 C-18.29305364 -1.15967192 -9.79727205 -0.38047658 0 0 Z " fill="#FAAC55" transform="translate(153,75)"/>
<path d="M0 0 C0.33 0.66 0.66 1.32 1 2 C1.66 2.33 2.32 2.66 3 3 C-13.59259259 17 -13.59259259 17 -19 17 C-19 16.34 -19 15.68 -19 15 C-18.01 15 -17.02 15 -16 15 C-16 14.34 -16 13.68 -16 13 C-14.68 13 -13.36 13 -12 13 C-12 12.34 -12 11.68 -12 11 C-9 9 -9 9 -6 9 C-5.67 7.68 -5.34 6.36 -5 5 C-4.01 5 -3.02 5 -2 5 C-2 4.34 -2 3.68 -2 3 C-1.34 3 -0.68 3 0 3 C0 2.01 0 1.02 0 0 Z " fill="#E5AFBA" transform="translate(90,232)"/>
<path d="M0 0 C0.33 0 0.66 0 1 0 C3.41726972 10.6047962 1.84575003 20.65027816 -1 31 C-1.33 31 -1.66 31 -2 31 C-2 28.03 -2 25.06 -2 22 C-1.34 22 -0.68 22 0 22 C0 14.74 0 7.48 0 0 Z " fill="#E4B3BD" transform="translate(230,184)"/>
<path d="M0 0 C1.45823212 -0.0270043 2.91660675 -0.04639787 4.375 -0.0625 C5.18710938 -0.07410156 5.99921875 -0.08570313 6.8359375 -0.09765625 C9 0 9 0 11 1 C13.01896864 1.0962762 15.0412429 1.12981825 17.0625 1.125 C18.14660156 1.12757813 19.23070312 1.13015625 20.34765625 1.1328125 C22.92243398 1.30118564 22.92243398 1.30118564 24 0 C25.51928038 -0.07179964 27.04167482 -0.08392007 28.5625 -0.0625 C29.38878906 -0.05347656 30.21507812 -0.04445312 31.06640625 -0.03515625 C31.70449219 -0.02355469 32.34257812 -0.01195312 33 0 C27.87344512 3.41770325 22.70422333 3.18220825 16.6875 3.1875 C15.6056543 3.20586914 15.6056543 3.20586914 14.50195312 3.22460938 C9.35604523 3.23845487 4.9486185 2.41468981 0 1 C0 0.67 0 0.34 0 0 Z " fill="#E8B2BE" transform="translate(156,253)"/>
<path d="M0 0 C1.2375 0.144375 2.475 0.28875 3.75 0.4375 C9.49002931 1.07833262 15.24293318 1.5421622 21 2 C21 1.34 21 0.68 21 0 C23.97 0 26.94 0 30 0 C26.08637783 3.91362217 20.94173358 3.18295874 15.6875 3.1875 C14.58631836 3.20586914 14.58631836 3.20586914 13.46289062 3.22460938 C8.59798996 3.23755942 4.61631426 2.54283687 0 1 C0 0.67 0 0.34 0 0 Z " fill="#E7B1BC" transform="translate(41,249)"/>
<path d="M0 0 C2.33524782 2.25740623 4.18705073 4.2805761 6 7 C6 8.32 6 9.64 6 11 C6.66 11 7.32 11 8 11 C8 16.28 8 21.56 8 27 C7.34 27 6.68 27 6 27 C6.33 23.04 6.66 19.08 7 15 C6.34 15 5.68 15 5 15 C5 12.69 5 10.38 5 8 C4.34 8 3.68 8 3 8 C3 7.01 3 6.02 3 5 C2.34 5 1.68 5 1 5 C0.67 3.35 0.34 1.7 0 0 Z " fill="#FBAE4D" transform="translate(173,90)"/>
<path d="M0 0 C2.64 0 5.28 0 8 0 C8 0.66 8 1.32 8 2 C9.64630328 1.85957123 11.29204179 1.71250671 12.9375 1.5625 C13.85402344 1.48128906 14.77054688 1.40007812 15.71484375 1.31640625 C17.96159732 1.23955024 17.96159732 1.23955024 19 0 C21.67058851 -0.14115161 24.32432238 -0.04247107 27 0 C22.33942556 3.10704962 18.6949504 3.15755403 13.125 3.1875 C11.93132812 3.20167969 10.73765625 3.21585938 9.5078125 3.23046875 C6.00075978 3.00004992 3.26429911 2.26279461 0 1 C0 0.67 0 0.34 0 0 Z " fill="#FCB23E" transform="translate(126,147)"/>
<path d="M0 0 C2.0625 0.4375 2.0625 0.4375 4 1 C-7.75771971 12 -7.75771971 12 -13 12 C-13 11.34 -13 10.68 -13 10 C-12.01 10 -11.02 10 -10 10 C-10 9.34 -10 8.68 -10 8 C-8.68 8 -7.36 8 -6 8 C-6 7.34 -6 6.68 -6 6 C-5.01 6 -4.02 6 -3 6 C-2.690625 5.195625 -2.38125 4.39125 -2.0625 3.5625 C-1 1 -1 1 0 0 Z " fill="#E8B2BD" transform="translate(292,139)"/>
<path d="M0 0 C0.66 0 1.32 0 2 0 C0.6118265 3.12857014 -1.01101878 5.28189174 -3.4375 7.6875 C-4.03433594 8.28949219 -4.63117188 8.89148438 -5.24609375 9.51171875 C-7 11 -7 11 -10 12 C-9.67 10.68 -9.34 9.36 -9 8 C-8.01 8 -7.02 8 -6 8 C-6 7.34 -6 6.68 -6 6 C-5.34 6 -4.68 6 -4 6 C-4 5.34 -4 4.68 -4 4 C-3.34 4 -2.68 4 -2 4 C-2 3.34 -2 2.68 -2 2 C-1.34 2 -0.68 2 0 2 C0 1.34 0 0.68 0 0 Z " fill="#E4AEB9" transform="translate(216,233)"/>
<path d="M0 0 C1.65 0 3.3 0 5 0 C4.67 1.32 4.34 2.64 4 4 C3.67 3.34 3.34 2.68 3 2 C1.02 4.97 -0.96 7.94 -3 11 C-3.33 9.68 -3.66 8.36 -4 7 C-3.01 6.67 -2.02 6.34 -1 6 C-0.67 4.02 -0.34 2.04 0 0 Z " fill="#EAB8C2" transform="translate(108,209)"/>
<path d="M0 0 C-1 2 -1 2 -3.06640625 2.8515625 C-4.30197266 3.23441406 -4.30197266 3.23441406 -5.5625 3.625 C-6.38878906 3.88539063 -7.21507812 4.14578125 -8.06640625 4.4140625 C-8.70449219 4.60742188 -9.34257812 4.80078125 -10 5 C-9.25 2.5625 -9.25 2.5625 -8 0 C-5.08814875 -1.35886391 -2.99887865 -0.96392528 0 0 Z " fill="#FCB239" transform="translate(164,142)"/>
<path d="M0 0 C1.98 0 3.96 0 6 0 C6 0.66 6 1.32 6 2 C6.9590625 2.1546875 6.9590625 2.1546875 7.9375 2.3125 C8.618125 2.539375 9.29875 2.76625 10 3 C10.33 3.99 10.66 4.98 11 6 C11.66 6 12.32 6 13 6 C12.67 6.66 12.34 7.32 12 8 C11.01 7.67 10.02 7.34 9 7 C9 6.34 9 5.68 9 5 C6.06279492 3.47700477 3.0831351 2.19899698 0 1 C0 0.67 0 0.34 0 0 Z " fill="#FAA674" transform="translate(155,77)"/>
<path d="M0 0 C0.66 0 1.32 0 2 0 C0.5682479 5.01113235 -1.98445693 6.94469549 -6 10 C-6 9.01 -6 8.02 -6 7 C-5.34 7 -4.68 7 -4 7 C-4.33 6.01 -4.66 5.02 -5 4 C-3.35 3.67 -1.7 3.34 0 3 C0 2.01 0 1.02 0 0 Z " fill="#E9B0BC" transform="translate(302,129)"/>
<path d="M0 0 C0.66 0.33 1.32 0.66 2 1 C0.68775452 4.93673644 -0.91910327 7.22719294 -4 10 C-4 8.68 -4 7.36 -4 6 C-3.34 6 -2.68 6 -2 6 C-2 5.01 -2 4.02 -2 3 C-1.34 3 -0.68 3 0 3 C0 2.01 0 1.02 0 0 Z " fill="#E7B1BB" transform="translate(222,223)"/>
<path d="M0 0 C0.66 0 1.32 0 2 0 C1.5205537 4.21912747 0.83374881 6.79663178 -2 10 C-2.22036864 6.14354879 -1.60355101 3.50776784 0 0 Z " fill="#E9B1BD" transform="translate(306,119)"/>
<path d="M0 0 C2.96052484 3.36423277 3.92289822 6.69159287 5 11 C3 9.25 3 9.25 1 7 C1 5.68 1 4.36 1 3 C0.34 2.67 -0.32 2.34 -1 2 C-0.67 1.34 -0.34 0.68 0 0 Z " fill="#EBADBA" transform="translate(303,94)"/>
<path d="M0 0 C2.16874252 0.50603992 3.99967627 0.99983813 6 2 C6 2.66 6 3.32 6 4 C6.99 4 7.98 4 9 4 C9 4.66 9 5.32 9 6 C5.06326356 4.68775452 2.77280706 3.08089673 0 0 Z " fill="#FBB23A" transform="translate(117,141)"/>
<path d="M0 0 C0.66 0.33 1.32 0.66 2 1 C0.87926138 1.83905565 -0.24674547 2.67107831 -1.375 3.5 C-2.00148438 3.9640625 -2.62796875 4.428125 -3.2734375 4.90625 C-5 6 -5 6 -7 6 C-7 5.34 -7 4.68 -7 4 C-1.7265625 0.77734375 -1.7265625 0.77734375 0 0 Z " fill="#F8A6B9" transform="translate(55,96)"/>
<path d="M0 0 C0.33 0.66 0.66 1.32 1 2 C-0.65 3.98 -2.3 5.96 -4 8 C-4.33 7.01 -4.66 6.02 -5 5 C-3.35 3.35 -1.7 1.7 0 0 Z " fill="#FBB527" transform="translate(118,86)"/>
</svg>
